<svg width="38" height="38" viewBox="0 0 38 38" fill="none" xmlns="http://www.w3.org/2000/svg">
<circle cx="19" cy="19" r="19" fill="#639599"/>
<path fill-rule="evenodd" clip-rule="evenodd" d="M14.3707 8.70404C15.5683 8.6494 15.9505 8.63647 18.9997 8.63647C22.0489 8.63647 22.4312 8.6494 23.6287 8.70404C24.8237 8.75859 25.6398 8.94835 26.354 9.22591C27.0923 9.51283 27.7184 9.89673 28.3426 10.5209C28.9667 11.145 29.3506 11.7712 29.6376 12.5095C29.9151 13.2236 30.1049 14.0397 30.1594 15.2348C30.2141 16.4323 30.227 16.8146 30.227 19.8638C30.227 22.9129 30.2141 23.2953 30.1594 24.4927C30.1049 25.6878 29.9151 26.5039 29.6376 27.2181C29.3506 27.9564 28.9667 28.5825 28.3426 29.2066C27.7184 29.8308 27.0923 30.2147 26.354 30.5016C25.6398 30.7792 24.8237 30.969 23.6287 31.0235C22.4312 31.0781 22.0489 31.091 18.9997 31.091C15.9505 31.091 15.5683 31.0781 14.3707 31.0235C13.1757 30.969 12.3596 30.7792 11.6454 30.5016C10.9071 30.2147 10.281 29.8308 9.65683 29.2066C9.03267 28.5825 8.64878 27.9563 8.36186 27.2181C8.08429 26.5039 7.89453 25.6878 7.83998 24.4927C7.78534 23.2953 7.77246 22.9129 7.77246 19.8638C7.77246 16.8146 7.78534 16.4323 7.83998 15.2348C7.89453 14.0397 8.08429 13.2236 8.36186 12.5095C8.64878 11.7712 9.03267 11.145 9.65683 10.5209C10.281 9.89673 10.9071 9.51283 11.6454 9.22591C12.3596 8.94835 13.1757 8.75859 14.3707 8.70404ZM24.9929 15.2179C25.7369 15.2179 26.3401 14.6147 26.3401 13.8706C26.3401 13.1265 25.7369 12.5234 24.9929 12.5234C24.2488 12.5234 23.6456 13.1265 23.6456 13.8706C23.6456 14.6147 24.2488 15.2179 24.9929 15.2179ZM24.2392 19.8634C24.2392 22.7571 21.8934 25.1028 18.9998 25.1028C16.1061 25.1028 13.7604 22.7571 13.7604 19.8634C13.7604 16.9698 16.1061 14.624 18.9998 14.624C21.8934 14.624 24.2392 16.9698 24.2392 19.8634ZM22.4543 19.8637C22.4543 21.7716 20.9076 23.3183 18.9997 23.3183C17.0918 23.3183 15.5452 21.7716 15.5452 19.8637C15.5452 17.9558 17.0918 16.4092 18.9997 16.4092C20.9076 16.4092 22.4543 17.9558 22.4543 19.8637Z" fill="#1B4B66"/>
</svg>
