<svg width="38" height="38" viewBox="0 0 38 38" fill="none" xmlns="http://www.w3.org/2000/svg">
<circle cx="19" cy="19" r="19" fill="#639599"/>
<path d="M31.091 12.6899C30.2013 13.0845 29.2451 13.3512 28.2415 13.4711C29.2659 12.8571 30.0525 11.8848 30.4229 10.7264C29.4644 11.2948 28.4026 11.7077 27.2725 11.9303C26.3675 10.9661 25.0781 10.3635 23.6512 10.3635C20.9113 10.3635 18.6899 12.5848 18.6899 15.3246C18.6899 15.7134 18.7338 16.0921 18.8184 16.4552C14.6951 16.2483 11.0395 14.2732 8.59259 11.2717C8.16555 12.0044 7.92089 12.8566 7.92089 13.7658C7.92089 15.487 8.79683 17.0055 10.128 17.8952C9.31471 17.8695 8.54978 17.6463 7.88082 17.2747C7.88047 17.2954 7.88047 17.3162 7.88047 17.3371C7.88047 19.7408 9.59059 21.746 11.8602 22.2017C11.4438 22.3151 11.0056 22.3757 10.553 22.3757C10.2334 22.3757 9.92255 22.3447 9.61969 22.2867C10.251 24.2578 12.0832 25.6921 14.2541 25.7322C12.5562 27.0628 10.417 27.8559 8.09266 27.8559C7.69224 27.8559 7.29731 27.8325 6.90918 27.7867C9.10473 29.1943 11.7126 30.0156 14.5143 30.0156C23.6396 30.0156 28.6297 22.4558 28.6297 15.8999C28.6297 15.6848 28.625 15.4708 28.6154 15.2581C29.5847 14.5586 30.4258 13.6848 31.091 12.6899Z" fill="#1B4B66"/>
</svg>
