<svg width="38" height="38" viewBox="0 0 38 38" fill="none" xmlns="http://www.w3.org/2000/svg">
<circle cx="19" cy="19" r="19" fill="#639599"/>
<path fill-rule="evenodd" clip-rule="evenodd" d="M29.9921 11.6859C30.3752 12.0689 30.6513 12.5455 30.7929 13.0683C31.6079 16.3473 31.4196 21.5259 30.8087 24.9315C30.6672 25.4543 30.3911 25.9309 30.0079 26.3139C29.6248 26.6968 29.1479 26.9728 28.6248 27.1143C26.71 27.6363 19.0031 27.6363 19.0031 27.6363C19.0031 27.6363 11.2962 27.6363 9.38139 27.1143C8.85833 26.9728 8.38148 26.6968 7.99832 26.3139C7.61515 25.9309 7.33906 25.4543 7.19752 24.9315C6.37777 21.6667 6.60249 16.4849 7.18169 13.0841C7.32323 12.5613 7.59933 12.0847 7.98249 11.7017C8.36565 11.3188 8.84251 11.0428 9.36557 10.9013C11.2804 10.3793 18.9873 10.3635 18.9873 10.3635C18.9873 10.3635 26.6942 10.3635 28.609 10.8855C29.1321 11.027 29.6089 11.3029 29.9921 11.6859ZM22.7011 18.9999L16.5322 22.7012V15.2986L22.7011 18.9999Z" fill="#1B4B66"/>
</svg>
